<?xml version="1.0" standalone="no"?>
<!DOCTYPE svg PUBLIC "-//W3C//DTD SVG 20010904//EN"
 "http://www.w3.org/TR/2001/REC-SVG-20010904/DTD/svg10.dtd">
<svg version="1.0" xmlns="http://www.w3.org/2000/svg"
 width="330.000000pt" height="150.000000pt" viewBox="0 0 330.000000 150.000000"
 preserveAspectRatio="xMidYMid meet">

<g transform="translate(0.000000,150.000000) scale(0.100000,-0.100000)"
fill="#000000" stroke="none">
<path d="M1345 785 c0 -209 1 -296 2 -193 2 103 2 274 0 380 -1 106 -2 22 -2
-187z"/>
<path d="M614 1058 l-9 -73 -80 -11 c-76 -10 -78 -11 -40 -18 95 -17 91 -11
44 -66 l-41 -48 -46 20 c-26 11 -60 24 -75 29 -24 7 -27 6 -17 -6 6 -8 34 -28
61 -45 27 -18 49 -36 49 -40 0 -4 -10 -31 -23 -60 l-23 -52 -43 48 c-44 51
-44 47 -2 -50 17 -39 19 -51 9 -57 -20 -12 -122 -89 -117 -89 2 0 38 13 81 29
l76 28 36 -47 c58 -76 68 -79 42 -13 -14 32 -23 59 -21 61 2 2 30 0 63 -4 l60
-6 7 -69 c4 -38 11 -67 15 -64 5 3 12 34 15 70 7 57 10 65 29 65 11 0 45 3 74
7 l53 6 -26 -58 c-14 -32 -24 -59 -22 -61 1 -2 24 24 51 56 l49 59 81 -30 c44
-17 77 -26 71 -21 -7 6 -96 70 -123 88 -2 1 10 35 27 75 l31 74 -48 -54 -48
-53 -27 63 c-21 48 -24 65 -15 70 7 4 38 26 68 49 48 36 51 40 25 34 -16 -4
-34 -10 -40 -14 -5 -4 -28 -14 -50 -22 l-40 -16 -38 49 -38 48 38 6 c99 16
101 19 18 30 l-80 10 -10 67 c-5 37 -13 69 -16 73 -3 3 -10 -27 -15 -67z m0
-179 c3 -34 6 -75 6 -91 l0 -29 -44 30 -44 31 26 60 c15 33 32 60 38 60 6 0
14 -27 18 -61z m76 -7 c13 -29 21 -54 19 -55 -2 -2 -22 -16 -43 -32 l-39 -28
6 39 c4 21 10 63 13 92 8 60 13 58 44 -16z m-128 -113 c44 -14 49 -25 41 -84
-4 -32 -10 -45 -22 -45 -9 0 -41 -3 -71 -6 l-55 -7 73 53 c41 28 71 54 68 57
-3 3 -11 1 -18 -4 -27 -20 -142 -63 -149 -56 -10 10 72 113 86 108 6 -2 27 -9
47 -16z m215 -26 c60 -73 60 -75 1 -52 -130 52 -130 52 -43 -12 l70 -52 -75 8
c-41 3 -78 12 -82 18 -12 18 -10 89 2 82 5 -3 8 0 5 7 -4 11 47 42 76 47 3 1
24 -20 46 -46z"/>
<path d="M1766 978 c-22 -37 -98 -277 -92 -293 10 -26 27 -16 43 25 l16 40 58
0 c55 0 58 -1 64 -29 8 -37 31 -59 47 -43 7 7 -4 52 -37 154 -59 178 -69 193
-99 146z m43 -108 c7 -25 15 -53 17 -62 5 -15 -1 -18 -35 -18 -23 0 -41 5 -41
10 0 23 35 129 41 122 3 -4 11 -27 18 -52z"/>
<path d="M1965 898 c-3 -8 -4 -61 -3 -119 2 -84 6 -104 18 -104 11 0 16 13 18
48 2 28 8 47 15 47 7 0 27 -23 46 -50 34 -49 61 -65 61 -34 0 8 -14 35 -31 60
l-30 44 32 45 c29 40 34 75 11 75 -5 0 -24 -22 -43 -50 -19 -27 -39 -50 -46
-50 -7 0 -13 19 -15 47 -3 45 -22 69 -33 41z"/>
<path d="M2178 903 c-2 -5 -1 -80 2 -168 4 -133 8 -160 20 -160 11 0 16 14 18
53 l3 52 39 -6 c33 -5 42 -2 64 19 23 23 26 34 26 97 0 62 -3 74 -25 95 -24
25 -54 30 -90 16 -11 -5 -28 -5 -37 0 -9 5 -18 6 -20 2z m116 -49 c10 -10 16
-33 16 -64 0 -66 -27 -92 -74 -74 -25 9 -23 141 2 147 32 8 40 7 56 -9z"/>
<path d="M2395 900 c-4 -6 10 -60 31 -120 42 -121 40 -151 -12 -170 -30 -12
-27 -34 5 -38 40 -6 73 45 117 184 36 110 40 131 28 144 -19 20 -28 6 -49 -75
-10 -38 -21 -74 -25 -78 -4 -5 -20 29 -36 74 -28 80 -45 102 -59 79z"/>
<path d="M2632 898 c-18 -18 -16 -202 3 -218 22 -19 35 -3 35 46 0 24 4 44 9
44 5 0 25 -22 45 -50 20 -27 40 -50 45 -50 24 0 21 26 -8 66 -17 25 -31 49
-31 55 0 6 14 29 31 50 29 37 33 69 9 69 -5 0 -26 -22 -46 -50 -20 -27 -40
-50 -44 -50 -5 0 -10 21 -12 47 -3 48 -15 62 -36 41z"/>
<path d="M2873 900 c-32 -13 -43 -41 -43 -112 0 -75 16 -105 63 -113 40 -8 87
9 87 31 0 13 -7 15 -39 9 -52 -9 -71 11 -71 75 0 64 19 84 71 75 31 -5 39 -4
39 9 0 31 -59 45 -107 26z"/>
</g>
</svg>
