<svg width="25" height="26" viewBox="0 0 25 26" fill="none" xmlns="http://www.w3.org/2000/svg">
<g clip-path="url(#clip0)">
<path d="M25 0.027832H0V25.0278H25V0.027832Z" fill="#61A8DE"/>
<path d="M19.685 5.54644L2.96715 12.0612C2.42566 12.2722 2.45846 13.0493 3.01587 13.2139L7.26404 14.4683L8.84946 19.499C9.01507 20.0245 9.68098 20.1838 10.0665 19.7902L12.2629 17.5475L16.5724 20.7109C17.0998 21.098 17.8509 20.8104 17.9848 20.17L20.8391 6.52383C20.9789 5.8554 20.3213 5.29849 19.685 5.54644ZM17.589 8.57488L9.82367 15.4418C9.74626 15.5102 9.697 15.605 9.68548 15.7076L9.38651 18.3654C9.37675 18.452 9.25546 18.4635 9.22957 18.3802L7.99951 14.4166C7.94317 14.2352 8.01662 14.0386 8.17807 13.9385L17.3481 8.25111C17.559 8.12022 17.7749 8.41052 17.589 8.57488Z" fill="white"/>
</g>
<defs>
<clipPath id="clip0">
<rect width="25" height="25" fill="white" transform="translate(0 0.027832)"/>
</clipPath>
</defs>
</svg>
