<svg width="25" height="25" viewBox="0 0 25 25" fill="none" xmlns="http://www.w3.org/2000/svg">
<g clip-path="url(#clip0)">
<path d="M25.1494 0H0V25H25.1494V0Z" fill="#7D3DAF"/>
<path d="M20.5286 8.05839L20.5236 8.03864C20.1219 6.42421 18.3107 4.69182 16.6475 4.33141L16.6287 4.32757C13.9384 3.8174 11.2107 3.8174 8.52095 4.32757L8.50163 4.33141C6.83891 4.69182 5.02775 6.42421 4.62545 8.03864L4.62103 8.05839C4.12437 10.313 4.12437 12.5995 4.62103 14.8541L4.62545 14.8738C5.01058 16.4194 6.68688 18.0721 8.28807 18.5267V20.3288C8.28807 20.9811 9.08769 21.3015 9.54242 20.8308L11.3792 18.9328C11.7776 18.955 12.1762 18.9673 12.5748 18.9673C13.9291 18.9673 15.2838 18.84 16.6287 18.5849L16.6475 18.5811C18.3107 18.2207 20.1219 16.4883 20.5236 14.8739L20.5286 14.8541C21.0253 12.5995 21.0253 10.313 20.5286 8.05839ZM19.075 14.5271C18.8068 15.5804 17.4316 16.8898 16.339 17.1317C14.9085 17.4021 13.4668 17.5177 12.0265 17.478C11.9978 17.4773 11.9703 17.4883 11.9503 17.5087C11.7459 17.7173 10.6091 18.8773 10.6091 18.8773L9.18261 20.3326C9.07831 20.4407 8.8951 20.3672 8.8951 20.218V17.2326C8.8951 17.1832 8.85967 17.1413 8.81094 17.1318C8.81067 17.1318 8.81039 17.1317 8.81011 17.1317C7.71745 16.8898 6.3428 15.5803 6.07405 14.5271C5.62705 12.4891 5.62705 10.4232 6.07405 8.38529C6.3428 7.33203 7.71745 6.0226 8.81011 5.78068C11.3083 5.30836 13.8413 5.30836 16.339 5.78068C17.4322 6.0226 18.8068 7.33203 19.075 8.38529C19.5225 10.4233 19.5225 12.4892 19.075 14.5271Z" fill="white"/>
<path d="M14.9519 15.9052C14.7839 15.8546 14.6238 15.8205 14.4751 15.7592C12.9346 15.1238 11.5168 14.3041 10.3937 13.0476C9.75505 12.3331 9.25518 11.5265 8.83263 10.6728C8.63226 10.2679 8.46339 9.84723 8.29127 9.42928C8.13432 9.04813 8.36549 8.65437 8.60891 8.36719C8.83732 8.09768 9.13124 7.89142 9.44954 7.73941C9.69798 7.62075 9.94306 7.68916 10.1245 7.8985C10.5168 8.35106 10.8771 8.82678 11.1688 9.35138C11.3482 9.67405 11.299 10.0685 10.9739 10.2881C10.8948 10.3414 10.8228 10.4041 10.7492 10.4644C10.6846 10.5172 10.6239 10.5706 10.5796 10.6421C10.4987 10.773 10.4949 10.9274 10.5469 11.0697C10.9479 12.165 11.6238 13.0168 12.7329 13.4756C12.9103 13.549 13.0886 13.6344 13.2931 13.6107C13.6355 13.571 13.7463 13.1976 13.9863 13.0025C14.2208 12.8119 14.5205 12.8094 14.7732 12.9683C15.0259 13.1273 15.2708 13.298 15.5143 13.4704C15.7533 13.6397 15.9913 13.8053 16.2117 13.9983C16.4237 14.1839 16.4967 14.4273 16.3773 14.6792C16.1588 15.1404 15.8408 15.5242 15.3821 15.7691C15.2526 15.8382 15.0979 15.8605 14.9519 15.9052C14.7839 15.8545 15.0979 15.8605 14.9519 15.9052Z" fill="white"/>
<path d="M12.5794 7.21201C14.5944 7.26813 16.2495 8.59748 16.6042 10.5778C16.6646 10.9152 16.6861 11.2602 16.713 11.6027C16.7243 11.7468 16.6422 11.8836 16.4858 11.8855C16.3243 11.8874 16.2516 11.7531 16.2412 11.6091C16.2204 11.324 16.206 11.0377 16.1665 10.7551C15.9579 9.2629 14.7609 8.0284 13.2668 7.76349C13.042 7.72361 12.8119 7.71313 12.5841 7.68938C12.4401 7.67435 12.2516 7.66568 12.2197 7.48778C12.1929 7.33863 12.3195 7.21986 12.4624 7.21223C12.5013 7.2101 12.5403 7.21185 12.5794 7.21201C14.5944 7.26813 12.5403 7.21185 12.5794 7.21201Z" fill="white"/>
<path d="M15.6414 11.1582C15.6381 11.1832 15.6363 11.242 15.6216 11.2974C15.5681 11.4985 15.2614 11.5237 15.1908 11.3207C15.1699 11.2605 15.1667 11.192 15.1666 11.1271C15.1659 10.7029 15.0731 10.2791 14.8579 9.90992C14.6367 9.53053 14.2987 9.2116 13.9022 9.01861C13.6625 8.90193 13.4032 8.82941 13.1405 8.78618C13.0257 8.76731 12.9096 8.75584 12.7942 8.73988C12.6544 8.72057 12.5797 8.63198 12.5863 8.495C12.5925 8.36663 12.6869 8.27431 12.8276 8.28221C13.2901 8.30832 13.7367 8.40767 14.1478 8.62408C14.9839 9.0642 15.4615 9.7589 15.6009 10.6865C15.6072 10.7286 15.6173 10.7702 15.6205 10.8124C15.6284 10.9166 15.6334 11.0208 15.6414 11.1582C15.6381 11.1832 15.6334 11.0208 15.6414 11.1582Z" fill="white"/>
<path d="M14.3881 11.1097C14.2195 11.1128 14.1293 11.02 14.1119 10.8663C14.0998 10.7592 14.0903 10.6506 14.0646 10.5464C14.0139 10.3411 13.9042 10.1509 13.7304 10.0251C13.6484 9.96571 13.5555 9.92242 13.4581 9.8945C13.3345 9.85901 13.2061 9.86877 13.0827 9.83871C12.9487 9.80607 12.8746 9.69822 12.8956 9.57326C12.9148 9.45954 13.0261 9.37078 13.1511 9.37978C13.9324 9.43584 14.4907 9.83734 14.5704 10.7516C14.576 10.8161 14.5827 10.8843 14.5682 10.946C14.5436 11.0517 14.4649 11.1046 14.3881 11.1097C14.2195 11.1128 14.4649 11.1046 14.3881 11.1097Z" fill="white"/>
</g>
<defs>
<clipPath id="clip0">
<rect width="25" height="25" fill="white"/>
</clipPath>
</defs>
</svg>
