<svg width="25" height="26" viewBox="0 0 25 26" fill="none" xmlns="http://www.w3.org/2000/svg">
<g clip-path="url(#clip0)">
<path d="M25 0.027832H0V25.0278H25V0.027832Z" fill="#1BD741"/>
<path d="M3.75732 21.2799L4.98189 16.9306C4.19442 15.5928 3.77982 14.0707 3.77982 12.507C3.77982 7.69253 7.69671 3.77563 12.5112 3.77563C17.3257 3.77563 21.2426 7.69253 21.2426 12.507C21.2426 17.3216 17.3257 21.2385 12.5112 21.2385C11.0111 21.2385 9.5421 20.8545 8.24259 20.1253L3.75732 21.2799ZM8.47189 18.5368L8.73916 18.7C9.87217 19.3917 11.1766 19.7573 12.5112 19.7573C16.509 19.7573 19.7614 16.5049 19.7614 12.507C19.7614 8.50924 16.509 5.25677 12.5112 5.25677C8.51342 5.25677 5.26095 8.50924 5.26095 12.507C5.26095 13.9 5.65685 15.2527 6.40576 16.419L6.58575 16.6992L5.88056 19.2039L8.47189 18.5368Z" fill="white"/>
<path d="M10.0584 8.44317L9.49186 8.41228C9.3139 8.40257 9.13935 8.46204 9.00484 8.57888C8.73017 8.8174 8.29098 9.27853 8.15609 9.87943C7.95493 10.7754 8.26581 11.8725 9.07039 12.9697C9.87498 14.0668 11.3744 15.8222 14.0258 16.572C14.8802 16.8136 15.5523 16.6507 16.0708 16.319C16.4816 16.0563 16.7647 15.6346 16.8667 15.1579L16.9572 14.7354C16.9859 14.6011 16.9177 14.4648 16.793 14.4073L14.8782 13.5247C14.7539 13.4675 14.6065 13.5037 14.5229 13.612L13.7712 14.5865C13.7144 14.6601 13.6172 14.6893 13.5294 14.6585C13.0147 14.4775 11.2903 13.7553 10.3441 11.9328C10.3031 11.8537 10.3133 11.7578 10.3715 11.6904L11.0899 10.8593C11.1633 10.7744 11.1818 10.6551 11.1377 10.552L10.3124 8.62096C10.2684 8.51816 10.1699 8.44925 10.0584 8.44317Z" fill="white"/>
</g>
<defs>
<clipPath id="clip0">
<rect width="25" height="25" fill="white" transform="translate(0 0.027832)"/>
</clipPath>
</defs>
</svg>
